<svg width="42" height="42" viewBox="0 0 42 42" fill="none" xmlns="http://www.w3.org/2000/svg">
<path d="M34.3 36.75L23.275 25.725C22.4 26.425 21.3937 26.9792 20.2562 27.3875C19.1187 27.7958 17.9083 28 16.625 28C13.4458 28 10.7552 26.899 8.55313 24.6969C6.35104 22.4948 5.25 19.8042 5.25 16.625C5.25 13.4458 6.35104 10.7552 8.55313 8.55313C10.7552 6.35104 13.4458 5.25 16.625 5.25C19.8042 5.25 22.4948 6.35104 24.6969 8.55313C26.899 10.7552 28 13.4458 28 16.625C28 17.9083 27.7958 19.1187 27.3875 20.2562C26.9792 21.3937 26.425 22.4 25.725 23.275L36.75 34.3L34.3 36.75ZM16.625 24.5C18.8125 24.5 20.6719 23.7344 22.2031 22.2031C23.7344 20.6719 24.5 18.8125 24.5 16.625C24.5 14.4375 23.7344 12.5781 22.2031 11.0469C20.6719 9.51562 18.8125 8.75 16.625 8.75C14.4375 8.75 12.5781 9.51562 11.0469 11.0469C9.51562 12.5781 8.75 14.4375 8.75 16.625C8.75 18.8125 9.51562 20.6719 11.0469 22.2031C12.5781 23.7344 14.4375 24.5 16.625 24.5Z" fill="#E5B973"/>
</svg>
